<svg width="24" height="22" viewBox="0 0 24 22" fill="none" xmlns="http://www.w3.org/2000/svg">
<path d="M6 2.4C4.01178 2.4 2.4 4.01178 2.4 6V15.6C2.4 17.5883 4.01178 19.2 6 19.2H18C19.9883 19.2 21.6 17.5883 21.6 15.6V11.4C21.6 10.7372 22.1372 10.2 22.8 10.2C23.4628 10.2 24 10.7372 24 11.4V15.6C24 18.9137 21.3137 21.6 18 21.6H6C2.6863 21.6 0 18.9137 0 15.6V6C0 2.6863 2.6863 0 6 0H10.2C10.8628 0 11.4 0.537264 11.4 1.2C11.4 1.86274 10.8628 2.4 10.2 2.4H6Z" fill="currentColor"/>
<path fill-rule="evenodd" clip-rule="evenodd" d="M20.211 0.702945C19.2738 -0.234315 17.7541 -0.234315 16.8169 0.702945L11.616 5.9039L10.817 10.7346C10.6693 11.6276 11.4437 12.401 12.3365 12.252L17.1606 11.4473L22.3609 6.24698C23.2982 5.30972 23.2982 3.79013 22.3609 2.85287L20.211 0.702945ZM13.4312 9.63624L13.8579 7.05594L18.5139 2.4L20.6639 4.54992L16.0073 9.20652L13.4312 9.63624Z" fill="currentColor"/>
</svg>
