<svg width="9" height="9" viewBox="0 0 9 9" fill="none" xmlns="http://www.w3.org/2000/svg">
<path d="M8.78338 7.59278C8.92637 7.74667 9.00394 7.94966 8.99985 8.15921C8.99575 8.36876 8.91031 8.5686 8.76142 8.71685C8.61253 8.8651 8.41176 8.95026 8.20117 8.95448C7.99059 8.95869 7.78653 8.88164 7.63177 8.73947L4.52281 5.64591L1.41385 8.73947C1.33933 8.81968 1.2493 8.88408 1.14916 8.92883C1.04902 8.97357 0.940829 8.99772 0.831077 8.99985C0.721326 9.00197 0.612274 8.98202 0.510461 8.94118C0.408648 8.90035 0.316172 8.83947 0.238578 8.76221C0.160984 8.68495 0.0998703 8.59289 0.0589024 8.49155C0.0179345 8.39021 -0.00204396 8.28169 0.000165104 8.17248C0.00237417 8.06327 0.0267252 7.95564 0.0717581 7.85602C0.116791 7.75641 0.181578 7.66687 0.262233 7.59278L3.37119 4.49921L0.262233 1.40722C0.181578 1.33313 0.116791 1.24359 0.0717581 1.14398C0.0267252 1.04436 0.00237417 0.936725 0.000165104 0.827519C-0.00204396 0.718312 0.0179345 0.609787 0.0589024 0.50845C0.0998703 0.407113 0.160984 0.315053 0.238578 0.23779C0.316172 0.160527 0.408648 0.0996535 0.510461 0.0588188C0.612274 0.0179842 0.721326 -0.00196983 0.831077 0.000153262C0.940829 0.00227635 1.04902 0.0264328 1.14916 0.0711741C1.2493 0.115915 1.33933 0.18032 1.41385 0.260525L4.52281 3.3533L7.63177 0.259738C7.78653 0.117568 7.99059 0.040519 8.20117 0.0447368C8.41176 0.0489545 8.61253 0.134112 8.76142 0.282363C8.91031 0.430614 8.99575 0.630452 8.99985 0.84C9.00394 1.04955 8.92637 1.25254 8.78338 1.40644L5.67442 4.49921L8.78338 7.59278Z" fill="currentColor"/>
</svg>
