<svg width="18" height="18" viewBox="0 0 18 18" fill="none" xmlns="http://www.w3.org/2000/svg">
<path fill-rule="evenodd" clip-rule="evenodd" d="M9 1.8C5.02355 1.8 1.8 5.02355 1.8 9C1.8 12.9765 5.02355 16.2 9 16.2C12.9765 16.2 16.2 12.9765 16.2 9C16.2 5.02355 12.9765 1.8 9 1.8ZM0 9C0 4.02943 4.02943 0 9 0C13.9705 0 18 4.02943 18 9C18 13.9705 13.9705 18 9 18C4.02943 18 0 13.9705 0 9ZM8.84556 4.28162C9.34263 4.28162 9.74556 4.68456 9.74556 5.18162V9.65205L12.9198 10.8588C13.3844 11.0353 13.6179 11.5552 13.4412 12.0198C13.2646 12.4844 12.7448 12.7179 12.2802 12.5412L8.52579 11.1141C8.1765 10.9813 7.94556 10.6465 7.94556 10.2728V5.18162C7.94556 4.68456 8.34849 4.28162 8.84556 4.28162Z" fill="#FF8800"/>
</svg>
